REM DIRINDEX 1\2\6,1\2\7,1\2\8,1\3\9,1\3\10,1\3\11,1\4\12,1\4\13,1\4\14,1\5\15,1\5\16,1\5\17,1\5\18
REM DIRNAME folder01,folder02,folder03,folder04,folder05,folder06,folder07,folder08,folder09,folder10,folder11,folder12,folder13,folder14,folder15,folder16,folder17,folder18
TITLE ""
FILE "" MP3
  TRACK 01 AUDIO
    TITLE "16:cjc019_5425"
    INDEX 01 00:00:00
  TRACK 02 AUDIO
    TITLE "0:"
    INDEX 01 00:01:01
  TRACK 03 AUDIO
    TITLE "18:cjc019_5426"
    INDEX 01 00:01:60
  TRACK 04 AUDIO
    TITLE "0:"
    INDEX 01 00:04:74
  TRACK 05 AUDIO
    TITLE "17:cjc019_5427"
    INDEX 01 00:05:52
  TRACK 06 AUDIO
    TITLE "0:"
    INDEX 01 00:06:67
  TRACK 07 AUDIO
    TITLE "16:cjc019_5428"
    INDEX 01 00:08:48
  TRACK 08 AUDIO
    TITLE "0:"
    INDEX 01 00:10:02
  TRACK 09 AUDIO
    TITLE "18:cjc019_5429"
    INDEX 01 00:10:63
  TRACK 10 AUDIO
    TITLE "0:"
    INDEX 01 00:13:26
  TRACK 11 AUDIO
    TITLE "17:cjc019_5430"
    INDEX 01 00:14:07
  TRACK 12 AUDIO
    TITLE "0:"
    INDEX 01 00:15:40
  TRACK 13 AUDIO
    TITLE "16:cjc019_5431"
    INDEX 01 00:17:25
  TRACK 14 AUDIO
    TITLE "0:"
    INDEX 01 00:18:48
  TRACK 15 AUDIO
    TITLE "18:cjc019_5432"
    INDEX 01 00:19:32
  TRACK 16 AUDIO
    TITLE "0:"
    INDEX 01 00:24:02
  TRACK 17 AUDIO
    TITLE "17:cjc019_5433"
    INDEX 01 00:24:53
  TRACK 18 AUDIO
    TITLE "0:"
    INDEX 01 00:26:01
  TRACK 19 AUDIO
    TITLE "16:cjc019_5434"
    INDEX 01 00:27:53
  TRACK 20 AUDIO
    TITLE "0:"
    INDEX 01 00:28:66
  TRACK 21 AUDIO
    TITLE "18:cjc019_5435"
    INDEX 01 00:29:50
  TRACK 22 AUDIO
    TITLE "0:"
    INDEX 01 00:32:62
  TRACK 23 AUDIO
    TITLE "17:cjc019_5436"
    INDEX 01 00:33:40
  TRACK 24 AUDIO
    TITLE "0:"
    INDEX 01 00:34:53
  TRACK 25 AUDIO
    TITLE "16:cjc019_5437"
    INDEX 01 00:36:35
  TRACK 26 AUDIO
    TITLE "0:"
    INDEX 01 00:37:46
  TRACK 27 AUDIO
    TITLE "18:cjc019_5438"
    INDEX 01 00:38:28
  TRACK 28 AUDIO
    TITLE "0:"
    INDEX 01 00:41:26
  TRACK 29 AUDIO
    TITLE "17:cjc019_5439"
    INDEX 01 00:42:02
  TRACK 30 AUDIO
    TITLE "0:"
    INDEX 01 00:43:17
  TRACK 31 AUDIO
    TITLE "16:cjc019_5440"
    INDEX 01 00:45:04
  TRACK 32 AUDIO
    TITLE "0:"
    INDEX 01 00:46:35
  TRACK 33 AUDIO
    TITLE "18:cjc019_5441"
    INDEX 01 00:47:25
  TRACK 34 AUDIO
    TITLE "0:"
    INDEX 01 00:50:09
  TRACK 35 AUDIO
    TITLE "17:cjc019_5442"
    INDEX 01 00:50:62
  TRACK 36 AUDIO
    TITLE "0:"
    INDEX 01 00:52:26
  TRACK 37 AUDIO
    TITLE "16:cjc019_5443"
    INDEX 01 00:54:05
  TRACK 38 AUDIO
    TITLE "0:"
    INDEX 01 00:55:18
  TRACK 39 AUDIO
    TITLE "18:cjc019_5444"
    INDEX 01 00:56:00
  TRACK 40 AUDIO
    TITLE "0:"
    INDEX 01 00:57:23
  TRACK 41 AUDIO
    TITLE "17:cjc019_5445"
    INDEX 01 00:58:01
  TRACK 42 AUDIO
    TITLE "0:"
    INDEX 01 00:59:14
  TRACK 43 AUDIO
    TITLE "16:cjc019_5446"
    INDEX 01 01:00:70
  TRACK 44 AUDIO
    TITLE "0:"
    INDEX 01 01:02:20
  TRACK 45 AUDIO
    TITLE "18:cjc019_5447"
    INDEX 01 01:02:73
  TRACK 46 AUDIO
    TITLE "0:"
    INDEX 01 01:04:19
  TRACK 47 AUDIO
    TITLE "17:cjc019_5448"
    INDEX 01 01:04:74
  TRACK 48 AUDIO
    TITLE "0:"
    INDEX 01 01:06:20
  TRACK 49 AUDIO
    TITLE "16:cjc019_5449"
    INDEX 01 01:08:09
  TRACK 50 AUDIO
    TITLE "0:"
    INDEX 01 01:09:38
  TRACK 51 AUDIO
    TITLE "18:cjc019_5450"
    INDEX 01 01:10:20
  TRACK 52 AUDIO
    TITLE "0:"
    INDEX 01 01:13:14
  TRACK 53 AUDIO
    TITLE "17:cjc019_5451"
    INDEX 01 01:13:65
  TRACK 54 AUDIO
    TITLE "0:"
    INDEX 01 01:15:23
  TRACK 55 AUDIO
    TITLE "16:cjc019_5452"
    INDEX 01 01:17:08
  TRACK 56 AUDIO
    TITLE "0:"
    INDEX 01 01:18:29
  TRACK 57 AUDIO
    TITLE "18:cjc019_5453"
    INDEX 01 01:19:13
  TRACK 58 AUDIO
    TITLE "0:"
    INDEX 01 01:22:37
  TRACK 59 AUDIO
    TITLE "17:cjc019_5454"
    INDEX 01 01:23:18
  TRACK 60 AUDIO
    TITLE "0:"
    INDEX 01 01:24:41
  TRACK 61 AUDIO
    TITLE "16:cjc019_5455"
    INDEX 01 01:26:25
  TRACK 62 AUDIO
    TITLE "0:"
    INDEX 01 01:27:53
  TRACK 63 AUDIO
    TITLE "18:cjc019_5456"
    INDEX 01 01:28:39
  TRACK 64 AUDIO
    TITLE "0:"
    INDEX 01 01:29:58
  TRACK 65 AUDIO
    TITLE "17:cjc019_5457"
    INDEX 01 01:30:34
  TRACK 66 AUDIO
    TITLE "0:"
    INDEX 01 01:31:59
  TRACK 67 AUDIO
    TITLE "16:cjc019_5458"
    INDEX 01 01:33:36
  TRACK 68 AUDIO
    TITLE "0:"
    INDEX 01 01:34:63
  TRACK 69 AUDIO
    TITLE "18:cjc019_5459"
    INDEX 01 01:35:47
  TRACK 70 AUDIO
    TITLE "0:"
    INDEX 01 01:38:20
  TRACK 71 AUDIO
    TITLE "17:cjc019_5460"
    INDEX 01 01:38:73
  TRACK 72 AUDIO
    TITLE "0:"
    INDEX 01 01:40:29
  TRACK 73 AUDIO
    TITLE "16:cjc019_5461"
    INDEX 01 01:42:14
  TRACK 74 AUDIO
    TITLE "0:"
    INDEX 01 01:43:41
  TRACK 75 AUDIO
    TITLE "18:cjc019_5462"
    INDEX 01 01:44:24
  TRACK 76 AUDIO
    TITLE "0:"
    INDEX 01 01:45:53
  TRACK 77 AUDIO
    TITLE "17:cjc019_5463"
    INDEX 01 01:46:35
  TRACK 78 AUDIO
    TITLE "0:"
    INDEX 01 01:47:56
  TRACK 79 AUDIO
    TITLE "16:cjc019_5464"
    INDEX 01 01:49:45
  TRACK 80 AUDIO
    TITLE "0:"
    INDEX 01 01:50:64
  TRACK 81 AUDIO
    TITLE "18:cjc019_5465"
    INDEX 01 01:51:50
  TRACK 82 AUDIO
    TITLE "0:"
    INDEX 01 01:52:73
  TRACK 83 AUDIO
    TITLE "17:cjc019_5466"
    INDEX 01 01:53:55
  TRACK 84 AUDIO
    TITLE "0:"
    INDEX 01 01:54:70
  TRACK 85 AUDIO
    TITLE "16:cjc019_5467"
    INDEX 01 01:56:55
  TRACK 86 AUDIO
    TITLE "0:"
    INDEX 01 01:57:66
  TRACK 87 AUDIO
    TITLE "18:cjc019_5468"
    INDEX 01 01:58:48
  TRACK 88 AUDIO
    TITLE "0:"
    INDEX 01 01:59:57
  TRACK 89 AUDIO
    TITLE "17:cjc019_5469"
    INDEX 01 02:00:35
  TRACK 90 AUDIO
    TITLE "0:"
    INDEX 01 02:01:52
  TRACK 91 AUDIO
    TITLE "16:cjc019_5470"
    INDEX 01 02:03:34
  TRACK 92 AUDIO
    TITLE "0:"
    INDEX 01 02:04:41
  TRACK 93 AUDIO
    TITLE "18:cjc019_5471"
    INDEX 01 02:05:19
  TRACK 94 AUDIO
    TITLE "0:"
    INDEX 01 02:07:65
  TRACK 95 AUDIO
    TITLE "17:cjc019_5472"
    INDEX 01 02:08:50
  TRACK 96 AUDIO
    TITLE "0:"
    INDEX 01 02:09:58
  TRACK 97 AUDIO
    TITLE "16:cjc019_5473"
    INDEX 01 02:11:45
  TRACK 98 AUDIO
    TITLE "0:"
    INDEX 01 02:12:52
  TRACK 99 AUDIO
    TITLE "18:cjc019_5474"
    INDEX 01 02:13:42
  TRACK 100 AUDIO
    TITLE "0:"
    INDEX 01 02:16:44
  TRACK 101 AUDIO
    TITLE "17:cjc019_5475"
    INDEX 01 02:17:22
  TRACK 102 AUDIO
    TITLE "0:"
    INDEX 01 02:18:33
  TRACK 103 AUDIO
    TITLE "16:cjc019_5476"
    INDEX 01 02:20:18
  TRACK 104 AUDIO
    TITLE "0:"
    INDEX 01 02:21:41
  TRACK 105 AUDIO
    TITLE "18:cjc019_5477"
    INDEX 01 02:22:23
  TRACK 106 AUDIO
    TITLE "0:"
    INDEX 01 02:23:74
  TRACK 107 AUDIO
    TITLE "17:cjc019_5478"
    INDEX 01 02:24:53
  TRACK 108 AUDIO
    TITLE "0:"
    INDEX 01 02:25:74
